:SAMPLES-PER-SECOND 30
:FULLY-SPECIFIED
:DEGREES
1734
root  -23.9753 40.5622 -46.3283 -178.703 -58.3966 171.646
RightUpLeg  9.2423 -7.22107 -12.4531
RightLeg  26.4419 0.993657 0.312835
RightFoot  -8.6053 -0.310625 10.4032
RightToes  0.000481921 0.542163 -0.142578
Spine  4.57778 0.457871 2.04349
Spine1  7.47971 1.85281 -5.07665
HEad  -0.905268 -21.4939 6.16606
LeftShoulder1  8.74703 -12.8302 -46.7212
LeftArm  -8.27759 22.5487 -24.379
LeftForeArm  28.4612 -16.5504 -4.05874
LeftHand  -0.25398 0.0180481 5.50724
RightShoulder  5.65601 9.3454 37.9762
RightArm  -0.540347 -6.29162 36.2692
RightForeArm  7.87843 16.6333 5.78885
RightHand  -1.62477 6.25267 -16.4938
LeftUpLeg  -5.04142 4.65815 -1.01497
LeftLeg  4.16638 19.2423 -5.27809
LeftFoot  4.50957 -0.372724 2.47674
LeftToes  1.06245e-005 4.65869e-005 -8.65517e-006
1735
root  -24.7689 40.5782 -46.3807 -178.407 -57.1291 171.051
RightUpLeg  5.73386 -6.00717 -13.3585
RightLeg  33.3649 -0.183493 -0.390197
RightFoot  -4.0606 -0.754321 11.5072
RightToes  0.000481921 0.542163 -0.142578
Spine  5.15409 0.623869 0.702222
Spine1  7.30565 1.7547 -4.59481
HEad  -1.32921 -21.1613 5.77154
LeftShoulder1  8.749 -12.8115 -46.7867
LeftArm  -7.46731 22.1141 -24.4341
LeftForeArm  26.9344 -18.621 -3.81264
LeftHand  -0.25398 0.0180481 5.50724
RightShoulder  5.69674 9.49683 37.7829
RightArm  -0.0430373 -7.00906 36.1857
RightForeArm  10.5555 16.222 5.81314
RightHand  -1.47276 5.74032 -15.6612
LeftUpLeg  -3.8978 4.88024 -1.61057
LeftLeg  4.97078 20.2608 -5.28684
LeftFoot  2.60902 -0.259749 1.98387
LeftToes  1.06245e-005 4.65869e-005 -8.65517e-006
1736
root  -25.498 40.5509 -46.4586 -177.964 -56.4098 169.928
RightUpLeg  1.96762 -5.48857 -14.3397
RightLeg  40.7514 -1.88207 -2.03151
RightFoot  2.04416 -1.10644 9.63939
RightToes  0.000481921 0.542163 -0.142578
Spine  6.00519 0.517982 -1.76114
Spine1  7.45451 1.10618 -3.05584
HEad  -2.40097 -20.4088 5.7041
LeftShoulder1  8.74008 -12.7797 -46.831
LeftArm  -6.49344 21.1241 -24.3869
LeftForeArm  26.156 -20.6012 -3.6352
LeftHand  -0.25398 0.0180481 5.50724
RightShoulder  5.82206 9.65879 38.1807
RightArm  0.770753 -7.12897 35.5046
RightForeArm  12.8357 16.5253 5.61372
RightHand  -1.42456 5.57014 -15.3891
LeftUpLeg  -2.45902 5.0401 -2.39673
LeftLeg  5.6595 20.7294 -5.46879
LeftFoot  0.576258 -0.144186 1.35758
LeftToes  1.06245e-005 4.65869e-005 -8.65517e-006
1737
root  -26.1616 40.4794 -46.5502 -177.868 -56.1017 168.988
RightUpLeg  -1.41642 -5.4936 -14.9836
RightLeg  47.1839 -3.5256 -4.39093
RightFoot  7.38142 -1.0322 6.52791
RightToes  0.000481921 0.542163 -0.142578
Spine  7.07449 0.238823 -4.10713
Spine1  7.68583 0.240654 -1.60826
HEad  -3.2577 -19.5683 5.67887
LeftShoulder1  8.74007 -12.7965 -46.7819
LeftArm  -5.53657 19.5846 -24.0606
LeftForeArm  26.2091 -21.9123 -3.57689
LeftHand  -0.25398 0.0180481 5.50724
RightShoulder  5.91514 9.71516 38.676
RightArm  0.743835 -7.26641 35.1195
RightForeArm  13.2703 17.029 5.39477
RightHand  -1.53511 6.07733 -15.8379
LeftUpLeg  -1.23203 5.14743 -3.1629
LeftLeg  6.82709 20.7578 -5.33639
LeftFoot  -1.06379 -0.114354 1.34716
LeftToes  1.06245e-005 4.65869e-005 -8.65517e-006
1738
root  -26.7943 40.4398 -46.6594 -178.195 -55.7175 168.708
RightUpLeg  -4.36636 -5.57744 -15.0089
RightLeg  51.5856 -4.64748 -6.6094
RightFoot  9.34394 -0.783563 4.61749
RightToes  0.000481921 0.542163 -0.142578
Spine  7.88251 0.0125219 -5.50096
Spine1  7.89726 -0.407338 -0.724529
HEad  -3.52714 -18.8509 5.55986
LeftShoulder1  8.80744 -12.8867 -46.8854
LeftArm  -4.63784 17.6228 -23.3461
LeftForeArm  26.7238 -22.3761 -3.56506
LeftHand  -0.25398 0.0180481 5.50724
RightShoulder  5.89255 9.6588 38.6943
RightArm  -0.412264 -7.78946 35.5139
RightForeArm  11.6719 17.2009 5.3545
RightHand  -1.73562 6.8738 -16.7329
LeftUpLeg  -0.20511 5.20985 -3.69464
LeftLeg  8.05042 21.149 -4.85861
LeftFoot  -2.50738 -0.0837017 1.27091
LeftToes  1.06245e-005 4.65869e-005 -8.65517e-006
1739
root  -27.4262 40.4916 -46.7939 -178.838 -55.1681 169.207
RightUpLeg  -7.10681 -5.69448 -14.2731
RightLeg  53.4632 -5.12184 -7.75798
RightFoot  8.13032 -0.625772 3.96743
RightToes  0.000481921 0.542163 -0.142578
Spine  8.11341 -0.177835 -5.85224
Spine1  8.09724 -0.785262 -0.150405
HEad  -3.39613 -18.3402 5.38271
LeftShoulder1  8.91864 -13.0103 -47.1279
LeftArm  -4.13683 15.5439 -22.5054
LeftForeArm  27.256 -22.2897 -3.54686
LeftHand  -0.25398 0.0180481 5.50724
RightShoulder  5.79487 9.57529 38.2525
RightArm  -1.95112 -8.58967 36.4018
RightForeArm  9.88345 16.9961 5.43252
RightHand  -1.85101 7.18899 -17.3813
LeftUpLeg  0.959729 5.2185 -3.82992
LeftLeg  8.34181 21.8788 -4.52142
LeftFoot  -3.75586 -0.0357103 0.884348
LeftToes  1.06245e-005 4.65869e-005 -8.65517e-006
1740
root  -28.0415 40.5692 -46.9477 -179.615 -54.6612 170.174
RightUpLeg  -9.64995 -6.24077 -13.0327
RightLeg  52.9904 -5.21705 -7.76983
RightFoot  5.86245 -0.541201 3.8471
RightToes  0.000481921 0.542163 -0.142578
Spine  8.14 -0.447188 -5.66932
Spine1  8.14931 -1.13519 0.261041
HEad  -3.08362 -17.9769 5.1773
LeftShoulder1  8.95969 -13.078 -47.1524
LeftArm  -4.37563 13.8549 -21.9893
LeftForeArm  27.4223 -22.3038 -3.53703
LeftHand  -0.25398 0.0180481 5.50724
RightShoulder  5.71481 9.54235 37.7699
RightArm  -2.73889 -9.43381 37.1654
RightForeArm  9.63995 16.788 5.46269
RightHand  -1.80931 6.90837 -17.3669
LeftUpLeg  2.03555 5.25266 -3.66963
LeftLeg  8.05118 22.2853 -4.40242
LeftFoot  -4.54675 -0.032405 1.01341
LeftToes  1.06245e-005 4.65869e-005 -8.65517e-006
1741
root  -28.6294 40.6046 -47.1162 179.638 -54.2619 171.17
RightUpLeg  -11.7397 -7.63561 -11.7272
RightLeg  50.6384 -5.62965 -7.66044
RightFoot  3.92866 -0.583993 4.56503
RightToes  0.000481921 0.542163 -0.142578
Spine  8.51118 -0.770512 -5.53854
Spine1  7.79579 -1.60709 0.684865
HEad  -2.73432 -17.5517 4.9713
LeftShoulder1  8.91487 -13.0522 -46.986
LeftArm  -5.30242 12.9028 -21.8393
LeftForeArm  27.1608 -23.0122 -3.58106
LeftHand  -0.25398 0.0180481 5.50724
RightShoulder  5.65133 9.53452 37.3248
RightArm  -2.29888 -10.2745 37.5272
RightForeArm  10.7965 16.9185 5.38368
RightHand  -1.72163 6.64776 -16.8986
LeftUpLeg  2.81913 5.37938 -3.45736
LeftLeg  8.12576 22.3689 -4.16822
LeftFoot  -5.21035 -0.0470547 1.46191
LeftToes  1.06245e-005 4.65869e-005 -8.65517e-006
1742
root  -29.1989 40.6115 -47.3068 179.094 -53.8498 171.924
RightUpLeg  -13.3168 -9.95464 -10.4949
RightLeg  46.6544 -6.7943 -7.95034
RightFoot  2.37505 -0.672966 5.71842
RightToes  0.000481921 0.542163 -0.142578
Spine  9.20517 -0.991805 -5.77243
Spine1  7.16203 -2.1231 1.53119
HEad  -2.67605 -16.9601 4.85557
LeftShoulder1  8.92531 -13.0161 -47.1469
LeftArm  -6.65971 12.4777 -21.6324
LeftForeArm  27.0312 -24.4344 -3.79914
LeftHand  -0.25398 0.0180481 5.50724
RightShoulder  5.53697 9.4646 36.6958
RightArm  -1.30698 -11.0879 37.6115
RightForeArm  11.9124 17.3579 5.24337
RightHand  -1.68965 6.70634 -16.5203
LeftUpLeg  3.54456 5.53756 -3.3393
LeftLeg  8.5929 22.662 -3.77598
LeftFoot  -6.27233 -0.0177163 1.23667
LeftToes  1.06245e-005 4.65869e-005 -8.65517e-006
1743
root  -29.7539 40.6147 -47.529 178.827 -53.345 172.429
RightUpLeg  -14.6086 -13.0419 -9.13011
RightLeg  41.0694 -8.16649 -7.83341
RightFoot  1.2389 -0.627661 5.75759
RightToes  0.000481921 0.542163 -0.142578
Spine  9.74436 -1.07036 -6.24497
Spine1  6.82652 -2.54504 2.70599
HEad  -3.28849 -16.5926 4.89013
LeftShoulder1  9.03366 -13.0524 -47.6234
LeftArm  -7.87697 12.1005 -21.2584
LeftForeArm  27.316 -26.0764 -4.13983
LeftHand  -0.25398 0.0180481 5.50724
RightShoulder  5.41379 9.34127 36.1625
RightArm  -0.793832 -11.651 37.445
RightForeArm  11.9616 17.7453 5.14491
RightHand  -1.69468 6.73668 -16.5284
LeftUpLeg  4.30313 5.62182 -3.30759
LeftLeg  8.87306 23.1167 -3.48034
LeftFoot  -7.36665 0.0143445 0.881053
LeftToes  1.06245e-005 4.65869e-005 -8.65517e-006
1744
root  -30.3038 40.5966 -47.792 178.815 -52.7582 172.732
RightUpLeg  -15.6201 -16.963 -7.50515
RightLeg  34.1162 -8.62398 -6.49164
RightFoot  0.752157 -0.534414 5.09204
RightToes  0.000481921 0.542163 -0.142578
Spine  9.87027 -1.13521 -6.62613
Spine1  7.03543 -2.81987 3.4731
HEad  -4.37394 -16.6004 5.13979
LeftShoulder1  9.09689 -13.1384 -47.7107
LeftArm  -8.48723 11.7089 -21.1595
LeftForeArm  27.7692 -27.5245 -4.43137
LeftHand  -0.25398 0.0180481 5.50724
RightShoulder  5.4002 9.27987 36.2556
RightArm  -1.21866 -11.8427 36.9671
RightForeArm  11.3745 17.6796 5.16969
RightHand  -1.70388 6.6345 -16.7478
LeftUpLeg  4.91034 5.60638 -3.37739
LeftLeg  8.95049 23.429 -3.28558
LeftFoot  -8.05089 0.0115164 1.29576
LeftToes  1.06245e-005 4.65869e-005 -8.65517e-006
1745
root  -30.8715 40.5601 -48.1012 179.046 -52.0967 172.798
RightUpLeg  -16.2115 -22.2178 -5.5035
RightLeg  26.3606 -7.48435 -4.38278
RightFoot  0.922512 -0.541687 5.09554
RightToes  0.000481921 0.542163 -0.142578
Spine  9.72681 -1.23173 -6.78022
Spine1  7.42438 -2.96383 3.66901
HEad  -5.13298 -15.8341 5.72245
LeftShoulder1  9.05697 -13.2136 -47.2809
LeftArm  -8.62651 11.5759 -21.5185
LeftForeArm  28.323 -28.7258 -4.66984
LeftHand  -0.25398 0.0180481 5.50724
RightShoulder  5.45222 9.28462 36.6366
RightArm  -2.49547 -11.8733 36.53
RightForeArm  11.2939 16.9578 5.31625
RightHand  -1.72471 6.6586 -16.9126
LeftUpLeg  5.60418 5.49419 -3.6328
LeftLeg  8.91916 23.9888 -3.07201
LeftFoot  -8.77811 0.0208873 1.38219
LeftToes  1.06245e-005 4.65869e-005 -8.65517e-006
1746
root  -31.4585 40.5403 -48.4509 179.487 -51.3807 172.621
RightUpLeg  -16.3006 -27.1891 -3.58744
RightLeg  18.1941 -6.23282 -1.85157
RightFoot  1.86462 -0.530549 4.6991
RightToes  0.000481921 0.542163 -0.142578
Spine  9.555 -1.22461 -6.81905
Spine1  7.57855 -3.00544 3.98494
HEad  -5.60346 -15.7134 5.49342
LeftShoulder1  9.10294 -13.3285 -47.1947
LeftArm  -8.39352 11.7255 -21.7724
LeftForeArm  28.9491 -29.5964 -4.83373
LeftHand  -0.25398 0.0180481 5.50724
RightShoulder  5.41153 9.24618 36.4506
RightArm  -4.3104 -12.1025 36.5721
RightForeArm  12.119 15.7297 5.50513
RightHand  -1.74667 6.75206 -16.995
LeftUpLeg  6.77401 5.27243 -4.08009
LeftLeg  8.39758 25.1114 -3.01558
LeftFoot  -9.76356 0.0523158 0.447945
LeftToes  1.06245e-005 4.65869e-005 -8.65517e-006
1747
root  -32.0527 40.5082 -48.8483 -179.955 -50.7339 172.195
RightUpLeg  -14.7671 -23.0218 -4.73975
RightLeg  9.30935 -12.9024 2.5167
RightFoot  3.48956 -0.499241 4.01579
RightToes  0.000481921 0.542163 -0.142578
Spine  9.39628 -1.17074 -6.81205
Spine1  7.66155 -2.97923 4.22362
HEad  -5.781 -15.6528 5.1804
LeftShoulder1  9.1573 -13.4046 -47.2694
LeftArm  -7.73611 11.8136 -21.8629
LeftForeArm  29.5658 -29.772 -4.84069
LeftHand  -0.25398 0.0180481 5.50724
RightShoulder  5.36819 9.20322 36.2608
RightArm  -5.96838 -12.4026 36.6283
RightForeArm  13.2025 14.37 5.67212
RightHand  -1.74202 6.6512 -17.0858
LeftUpLeg  8.05605 5.03449 -4.61346
LeftLeg  7.6721 26.0091 -3.1678
LeftFoot  -10.493 0.0628746 0.118508
LeftToes  1.06245e-005 4.65869e-005 -8.65517e-006
1748
root  -32.6687 40.4155 -49.315 -179.487 -50.3181 171.648
RightUpLeg  -11.9897 -11.275 -7.9995
RightLeg  -0.323867 -25.5356 7.84913
RightFoot  5.01356 -0.562756 4.14533
RightToes  0.000481921 0.542163 -0.142578
Spine  9.13125 -1.44143 -6.40922
Spine1  8.10199 -2.91873 3.00479
HEad  -5.90098 -15.3477 5.71655
LeftShoulder1  8.70735 -13.1181 -45.6602
LeftArm  -6.80534 11.7313 -22.9557
LeftForeArm  29.9938 -29.0671 -4.65735
LeftHand  -0.25398 0.0180481 5.50724
RightShoulder  5.6395 9.35654 37.8051
RightArm  -6.76385 -12.258 35.6933
RightForeArm  14.1292 13.1356 5.84228
RightHand  -1.71819 6.50293 -17.0596
LeftUpLeg  9.10599 4.94026 -5.0503
LeftLeg  7.57055 26.0564 -3.19387
LeftFoot  -11.0542 0.0648011 0.85281
LeftToes  1.06245e-005 4.65869e-005 -8.65517e-006
